<?xml version="1.0" encoding="utf-8"?>
<!-- Generator: Adobe Illustrator 26.0.3, SVG Export Plug-In . SVG Version: 6.00 Build 0)  -->
<svg version="1.1" id="Layer_1" xmlns="http://www.w3.org/2000/svg" xmlns:xlink="http://www.w3.org/1999/xlink" x="0px" y="0px"
	 viewBox="0 0 500 500" style="enable-background:new 0 0 500 500;" xml:space="preserve">
<style type="text/css">
	.st0{fill:#FDD935;}
	.st1{font-family:'Roboto-Light';}
	.st2{font-size:52.3734px;}
	.st3{letter-spacing:7;}
</style>
<g>
	<path class="st0" d="M204.5,196.7l-4.8,2.2c-4.9,2.3-10.7,0.2-13-4.7c0,0,0,0,0,0L171,160.7c-2.3-4.9-0.1-10.7,4.8-13l5.1-2.4
		L161.4,103l-2.2,5.3l-82.3,200c-5.5-1.5-11.1-2.3-16.7-2.4c-7.8,0-11.7,3.3-11.7,10c0,6.7,6.9,10.7,20.6,12
		c-3.8,9.2-8.5,18.1-14.1,26.3c-3,4.3-4.5,8.2-4.5,11.7c0.1,2.3,1.1,4.5,2.9,6c2,1.9,4.7,3,7.4,2.9c6.5,0,11.6-4.9,15.3-14.8
		c1.7-5.1,3.7-10,5.7-14.6l6.9-16.5c10.7,0.5,30.6,0.7,59.8,0.7h67l19.9,42.6h49.8L204.5,196.7z M137.4,312
		c-12.1,0-25.8-0.6-41.2-1.9l51.4-127l59.8,128.9L137.4,312z"/>
	<path class="st0" d="M428.3,135.2c-12.7-27.7-30.5-49.5-53.5-65.3c-12.5-8.3-26.2-14.7-40.7-18.9c-15.9-4.8-35.6-5.7-59.1-2.6
		c-18.3,2.6-43.7,11-76.3,25.4c-4.1,1.8-8.3,3.7-12.7,5.7l-10.2,4.8l24,52l1.9-0.9l4.1-1.9c4.9-2.3,10.7-0.2,13,4.7c0,0,0,0,0,0
		l15.7,33.5c2.3,4.9,0.2,10.7-4.7,13c0,0,0,0,0,0l-4.4,2l-1.9,0.9l81.9,177l1.5,3.2c7.6-3.6,14.7-7,21.3-10.3
		c13.8-6.8,27.2-14.3,40.1-22.6c27.1-17.5,48.5-42.6,61.6-72C448.8,221.4,448.2,178.9,428.3,135.2z M414.4,257.2
		c-15.2,34.4-40.8,60-76.9,76.7l-4.6,2.1c-1.7,0.8-3.7,1.6-5.9,2.5L211.8,86.2c14.8-6.8,30-12.4,45.7-17
		c39.9-11,75.1-5.9,105.5,15.2c21,14.5,37.1,34.1,48.5,59C429.6,183,430.5,220.9,414.4,257.2L414.4,257.2z"/>
	<text transform="matrix(1 0 0 1 35.8599 439.1284)" class="st0 st1 st2 st3">ALEDAN audio</text>
</g>
</svg>
