<?xml version="1.0" encoding="utf-8"?>
<!-- Generator: Adobe Illustrator 25.3.1, SVG Export Plug-In . SVG Version: 6.00 Build 0)  -->
<svg version="1.1" id="Capa_1" xmlns="http://www.w3.org/2000/svg" xmlns:xlink="http://www.w3.org/1999/xlink" x="0px" y="0px"
	 viewBox="0 0 512 512" style="enable-background:new 0 0 512 512;" xml:space="preserve">
<style type="text/css">
	.st0{fill:#FFFFFF;}
	.st1{fill:url(#SVGID_1_);}
	.st2{fill:url(#SVGID_2_);}
	.st3{fill:url(#SVGID_3_);}
	.st4{fill:url(#SVGID_4_);}
	.st5{fill:url(#SVGID_5_);}
	.st6{fill:url(#SVGID_6_);}
	.st7{fill:url(#SVGID_7_);}
	.st8{fill:url(#SVGID_8_);}
	.st9{fill:url(#SVGID_9_);}
	.st10{fill:url(#SVGID_10_);}
	.st11{fill:url(#SVGID_11_);}
	.st12{fill:url(#SVGID_12_);}
	.st13{fill:url(#SVGID_13_);}
	.st14{fill:url(#SVGID_14_);}
</style>
<g>
	<g>
		<path class="st0" d="M453,361.3c-2.8-1.2-6-0.5-8.2,1.6l-82.1,82.1c-2.1,2.1-2.8,5.4-1.6,8.2c1.2,2.8,3.9,4.6,6.9,4.6h82.1
			c4.2,0,7.5-3.4,7.5-7.5v-82.1C457.7,365.2,455.8,362.5,453,361.3z M386.2,442.9l56.5-56.5v56.5H386.2z"/>
	</g>
</g>
<g>
	
		<linearGradient id="SVGID_1_" gradientUnits="userSpaceOnUse" x1="-977.7271" y1="784.7936" x2="-513.9184" y2="784.7936" gradientTransform="matrix(0.6234 0.7819 -0.7819 0.6234 1286.1702 375.1367)">
		<stop  offset="0" style="stop-color:#FFFFFF"/>
		<stop  offset="0.9949" style="stop-color:#FFFFFF;stop-opacity:0.1"/>
	</linearGradient>
	<path class="st1" d="M256,263.3c-4.2,0-7.6,3.4-7.6,7.6v142c0,4.2,3.4,7.6,7.6,7.6c4.2,0,7.6-3.4,7.6-7.6v-142
		C263.6,266.7,260.2,263.3,256,263.3z"/>
	
		<linearGradient id="SVGID_2_" gradientUnits="userSpaceOnUse" x1="-977.7271" y1="677.6795" x2="-513.9184" y2="677.6795" gradientTransform="matrix(0.6234 0.7819 -0.7819 0.6234 1286.1702 375.1367)">
		<stop  offset="0" style="stop-color:#FFFFFF"/>
		<stop  offset="0.9949" style="stop-color:#FFFFFF;stop-opacity:0.1"/>
	</linearGradient>
	<path class="st2" d="M263.6,166.2V99.1c0-4.2-3.4-7.6-7.6-7.6c-4.2,0-7.6,3.4-7.6,7.6v67.1c-3.3,1.6-5.6,4.9-5.6,8.8v16.7
		c0,3.9,2.3,7.2,5.6,8.8v40.5c0,4.2,3.4,7.6,7.6,7.6c4.2,0,7.6-3.4,7.6-7.6v-40.5c3.3-1.6,5.6-4.9,5.6-8.8V175
		C269.2,171.1,266.9,167.8,263.6,166.2z"/>
	
		<linearGradient id="SVGID_3_" gradientUnits="userSpaceOnUse" x1="-977.7271" y1="628.7043" x2="-513.9184" y2="628.7043" gradientTransform="matrix(0.6234 0.7819 -0.7819 0.6234 1286.1702 375.1367)">
		<stop  offset="0" style="stop-color:#FFFFFF"/>
		<stop  offset="0.9949" style="stop-color:#FFFFFF;stop-opacity:0.1"/>
	</linearGradient>
	<path class="st3" d="M301.3,179c4.2,0,7.6-3.4,7.6-7.6v-46.1c0-4.2-3.4-7.6-7.6-7.6c-4.2,0-7.6,3.4-7.6,7.6v46.1
		C293.7,175.6,297.1,179,301.3,179z"/>
	
		<linearGradient id="SVGID_4_" gradientUnits="userSpaceOnUse" x1="-977.7271" y1="719.518" x2="-513.9184" y2="719.518" gradientTransform="matrix(0.6234 0.7819 -0.7819 0.6234 1286.1702 375.1367)">
		<stop  offset="0" style="stop-color:#FFFFFF"/>
		<stop  offset="0.9949" style="stop-color:#FFFFFF;stop-opacity:0.1"/>
	</linearGradient>
	<path class="st4" d="M308.9,298.9v-97.6c0-4.2-3.4-7.6-7.6-7.6c-4.2,0-7.6,3.4-7.6,7.6v97.6c-3.3,1.6-5.6,4.9-5.6,8.8v16.7
		c0,3.9,2.3,7.2,5.6,8.8v53.5c0,4.2,3.4,7.6,7.6,7.6c4.2,0,7.6-3.4,7.6-7.6v-53.5c3.3-1.6,5.6-4.9,5.6-8.8v-16.7
		C314.5,303.8,312.2,300.5,308.9,298.9z"/>
	
		<linearGradient id="SVGID_5_" gradientUnits="userSpaceOnUse" x1="-977.7271" y1="712.7709" x2="-513.9184" y2="712.7709" gradientTransform="matrix(0.6234 0.7819 -0.7819 0.6234 1286.1702 375.1367)">
		<stop  offset="0" style="stop-color:#FFFFFF"/>
		<stop  offset="0.9949" style="stop-color:#FFFFFF;stop-opacity:0.1"/>
	</linearGradient>
	<path class="st5" d="M346.6,311.8c-4.2,0-7.6,3.4-7.6,7.6v41.2c0,4.2,3.4,7.6,7.6,7.6s7.6-3.4,7.6-7.6v-41.2
		C354.2,315.2,350.8,311.8,346.6,311.8z"/>
	
		<linearGradient id="SVGID_6_" gradientUnits="userSpaceOnUse" x1="-977.7271" y1="638.2576" x2="-513.9184" y2="638.2576" gradientTransform="matrix(0.6234 0.7819 -0.7819 0.6234 1286.1702 375.1367)">
		<stop  offset="0" style="stop-color:#FFFFFF"/>
		<stop  offset="0.9949" style="stop-color:#FFFFFF;stop-opacity:0.1"/>
	</linearGradient>
	<path class="st6" d="M354.2,208v-56.6c0-4.2-3.4-7.6-7.6-7.6s-7.6,3.4-7.6,7.6V208c-3.3,1.6-5.6,4.9-5.6,8.8v16.7
		c0,3.9,2.3,7.2,5.6,8.8v47.1c0,4.2,3.4,7.6,7.6,7.6s7.6-3.4,7.6-7.6v-47.1c3.3-1.6,5.6-4.9,5.6-8.8v-16.7
		C359.8,213,357.5,209.6,354.2,208z"/>
	
		<linearGradient id="SVGID_7_" gradientUnits="userSpaceOnUse" x1="-977.7271" y1="596.9921" x2="-513.9184" y2="596.9921" gradientTransform="matrix(0.6234 0.7819 -0.7819 0.6234 1286.1702 375.1367)">
		<stop  offset="0" style="stop-color:#FFFFFF"/>
		<stop  offset="0.9949" style="stop-color:#FFFFFF;stop-opacity:0.1"/>
	</linearGradient>
	<path class="st7" d="M391.9,252.2c4.2,0,7.6-3.4,7.6-7.6v-67c0-4.2-3.4-7.6-7.6-7.6c-4.2,0-7.6,3.4-7.6,7.6v67
		C384.3,248.8,387.7,252.2,391.9,252.2z"/>
	
		<linearGradient id="SVGID_8_" gradientUnits="userSpaceOnUse" x1="-977.7271" y1="655.2045" x2="-513.9184" y2="655.2045" gradientTransform="matrix(0.6234 0.7819 -0.7819 0.6234 1286.1702 375.1367)">
		<stop  offset="0" style="stop-color:#FFFFFF"/>
		<stop  offset="0.9949" style="stop-color:#FFFFFF;stop-opacity:0.1"/>
	</linearGradient>
	<path class="st8" d="M399.5,287.3v-12.8c0-4.2-3.4-7.6-7.6-7.6c-4.2,0-7.6,3.4-7.6,7.6v12.8c-3.3,1.6-5.6,4.9-5.6,8.8v16.7
		c0,3.9,2.3,7.2,5.6,8.8v12.8c0,4.2,3.4,7.6,7.6,7.6c4.2,0,7.6-3.4,7.6-7.6v-12.8c3.3-1.6,5.6-4.9,5.6-8.8v-16.7
		C405,292.2,402.8,288.9,399.5,287.3z"/>
	
		<linearGradient id="SVGID_9_" gradientUnits="userSpaceOnUse" x1="-977.7271" y1="699.5302" x2="-513.9184" y2="699.5302" gradientTransform="matrix(0.6234 0.7819 -0.7819 0.6234 1286.1702 375.1367)">
		<stop  offset="0" style="stop-color:#FFFFFF"/>
		<stop  offset="0.9949" style="stop-color:#FFFFFF;stop-opacity:0.1"/>
	</linearGradient>
	<path class="st9" d="M210.7,179c4.2,0,7.6-3.4,7.6-7.6v-46.1c0-4.2-3.4-7.6-7.6-7.6s-7.6,3.4-7.6,7.6v46.1
		C203.1,175.6,206.5,179,210.7,179z"/>
	
		<linearGradient id="SVGID_10_" gradientUnits="userSpaceOnUse" x1="-977.7271" y1="790.3439" x2="-513.9184" y2="790.3439" gradientTransform="matrix(0.6234 0.7819 -0.7819 0.6234 1286.1702 375.1367)">
		<stop  offset="0" style="stop-color:#FFFFFF"/>
		<stop  offset="0.9949" style="stop-color:#FFFFFF;stop-opacity:0.1"/>
	</linearGradient>
	<path class="st10" d="M218.3,298.9v-97.6c0-4.2-3.4-7.6-7.6-7.6s-7.6,3.4-7.6,7.6v97.6c-3.3,1.6-5.6,4.9-5.6,8.8v16.7
		c0,3.9,2.3,7.2,5.6,8.8v53.5c0,4.2,3.4,7.6,7.6,7.6s7.6-3.4,7.6-7.6v-53.5c3.3-1.6,5.6-4.9,5.6-8.8v-16.7
		C223.9,303.8,221.6,300.5,218.3,298.9z"/>
	
		<linearGradient id="SVGID_11_" gradientUnits="userSpaceOnUse" x1="-977.7271" y1="854.4227" x2="-513.9184" y2="854.4227" gradientTransform="matrix(0.6234 0.7819 -0.7819 0.6234 1286.1702 375.1367)">
		<stop  offset="0" style="stop-color:#FFFFFF"/>
		<stop  offset="0.9949" style="stop-color:#FFFFFF;stop-opacity:0.1"/>
	</linearGradient>
	<path class="st11" d="M165.4,311.8c-4.2,0-7.6,3.4-7.6,7.6v41.2c0,4.2,3.4,7.6,7.6,7.6s7.6-3.4,7.6-7.6v-41.2
		C173,315.2,169.6,311.8,165.4,311.8z"/>
	
		<linearGradient id="SVGID_12_" gradientUnits="userSpaceOnUse" x1="-977.7271" y1="779.9095" x2="-513.9184" y2="779.9095" gradientTransform="matrix(0.6234 0.7819 -0.7819 0.6234 1286.1702 375.1367)">
		<stop  offset="0" style="stop-color:#FFFFFF"/>
		<stop  offset="0.9949" style="stop-color:#FFFFFF;stop-opacity:0.1"/>
	</linearGradient>
	<path class="st12" d="M173,208v-56.6c0-4.2-3.4-7.6-7.6-7.6s-7.6,3.4-7.6,7.6V208c-3.3,1.6-5.6,4.9-5.6,8.8v16.7
		c0,3.9,2.3,7.2,5.6,8.8v47.1c0,4.2,3.4,7.6,7.6,7.6s7.6-3.4,7.6-7.6v-47.1c3.3-1.6,5.6-4.9,5.6-8.8v-16.7
		C178.6,213,176.3,209.6,173,208z"/>
	
		<linearGradient id="SVGID_13_" gradientUnits="userSpaceOnUse" x1="-977.7271" y1="809.4698" x2="-513.9184" y2="809.4698" gradientTransform="matrix(0.6234 0.7819 -0.7819 0.6234 1286.1702 375.1367)">
		<stop  offset="0" style="stop-color:#FFFFFF"/>
		<stop  offset="0.9949" style="stop-color:#FFFFFF;stop-opacity:0.1"/>
	</linearGradient>
	<path class="st13" d="M120.1,252.2c4.2,0,7.6-3.4,7.6-7.6v-67c0-4.2-3.4-7.6-7.6-7.6c-4.2,0-7.6,3.4-7.6,7.6v67
		C112.5,248.8,115.9,252.2,120.1,252.2z"/>
	
		<linearGradient id="SVGID_14_" gradientUnits="userSpaceOnUse" x1="-977.7271" y1="867.6823" x2="-513.9184" y2="867.6823" gradientTransform="matrix(0.6234 0.7819 -0.7819 0.6234 1286.1702 375.1367)">
		<stop  offset="0" style="stop-color:#FFFFFF"/>
		<stop  offset="0.9949" style="stop-color:#FFFFFF;stop-opacity:0.1"/>
	</linearGradient>
	<path class="st14" d="M127.7,287.3v-12.8c0-4.2-3.4-7.6-7.6-7.6c-4.2,0-7.6,3.4-7.6,7.6v12.8c-3.3,1.6-5.6,4.9-5.6,8.8v16.7
		c0,3.9,2.3,7.2,5.6,8.8v12.8c0,4.2,3.4,7.6,7.6,7.6c4.2,0,7.6-3.4,7.6-7.6v-12.8c3.3-1.6,5.6-4.9,5.6-8.8v-16.7
		C133.3,292.2,131,288.9,127.7,287.3z"/>
</g>
</svg>
