<?xml version="1.0" encoding="utf-8"?>
<!-- Generator: Adobe Illustrator 25.3.1, SVG Export Plug-In . SVG Version: 6.00 Build 0)  -->
<svg version="1.1" id="Layer_1" xmlns="http://www.w3.org/2000/svg" xmlns:xlink="http://www.w3.org/1999/xlink" x="0px" y="0px"
	 viewBox="0 0 295.2 295.2" style="enable-background:new 0 0 295.2 295.2;" xml:space="preserve">
<style type="text/css">
	.st0{fill:#0B132B;}
</style>
<g>
	<path class="st0" d="M147.6,153.3c-3.3,0-5.9,2.6-5.9,5.9v110.4c0,3.3,2.6,5.9,5.9,5.9s5.9-2.6,5.9-5.9V159.2
		C153.5,156,150.9,153.3,147.6,153.3z"/>
	<path class="st0" d="M153.5,77.8V25.7c0-3.3-2.6-5.9-5.9-5.9s-5.9,2.6-5.9,5.9v52.1c-2.6,1.2-4.3,3.8-4.3,6.8v13
		c0,3,1.8,5.6,4.3,6.8V136c0,3.3,2.6,5.9,5.9,5.9s5.9-2.6,5.9-5.9v-31.5c2.6-1.2,4.3-3.8,4.3-6.8v-13
		C157.9,81.6,156.1,79,153.5,77.8z"/>
	<path class="st0" d="M182.8,87.8c3.3,0,5.9-2.6,5.9-5.9V46c0-3.3-2.6-5.9-5.9-5.9s-5.9,2.6-5.9,5.9v35.9
		C176.9,85.1,179.6,87.8,182.8,87.8z"/>
	<path class="st0" d="M188.7,180.9v-75.9c0-3.3-2.6-5.9-5.9-5.9s-5.9,2.6-5.9,5.9v75.9c-2.6,1.2-4.3,3.8-4.3,6.8v13
		c0,3,1.8,5.6,4.3,6.8v41.6c0,3.3,2.6,5.9,5.9,5.9s5.9-2.6,5.9-5.9v-41.6c2.6-1.2,4.3-3.8,4.3-6.8v-13
		C193.1,184.8,191.3,182.2,188.7,180.9z"/>
	<path class="st0" d="M218,191c-3.3,0-5.9,2.6-5.9,5.9v32c0,3.3,2.6,5.9,5.9,5.9s5.9-2.6,5.9-5.9v-32C223.9,193.6,221.3,191,218,191
		z"/>
	<path class="st0" d="M223.9,110.3v-44c0-3.3-2.6-5.9-5.9-5.9s-5.9,2.6-5.9,5.9v44c-2.6,1.2-4.3,3.8-4.3,6.8v13c0,3,1.8,5.6,4.3,6.8
		v36.6c0,3.3,2.6,5.9,5.9,5.9s5.9-2.6,5.9-5.9V137c2.6-1.2,4.3-3.8,4.3-6.8v-13C228.3,114.2,226.5,111.6,223.9,110.3z"/>
	<path class="st0" d="M253.2,144.7c3.3,0,5.9-2.6,5.9-5.9V86.6c0-3.3-2.6-5.9-5.9-5.9c-3.3,0-5.9,2.6-5.9,5.9v52.1
		C247.3,142,250,144.7,253.2,144.7z"/>
	<path class="st0" d="M259.2,171.9v-10c0-3.3-2.6-5.9-5.9-5.9c-3.3,0-5.9,2.6-5.9,5.9v10c-2.6,1.2-4.3,3.8-4.3,6.8v13
		c0,3,1.8,5.6,4.3,6.8v10c0,3.3,2.6,5.9,5.9,5.9c3.3,0,5.9-2.6,5.9-5.9v-10c2.6-1.2,4.3-3.8,4.3-6.8v-13
		C263.5,175.8,261.7,173.2,259.2,171.9z"/>
	<path class="st0" d="M112.4,87.8c3.3,0,5.9-2.6,5.9-5.9V46c0-3.3-2.6-5.9-5.9-5.9c-3.3,0-5.9,2.6-5.9,5.9v35.9
		C106.5,85.1,109.1,87.8,112.4,87.8z"/>
	<path class="st0" d="M118.3,180.9v-75.9c0-3.3-2.6-5.9-5.9-5.9c-3.3,0-5.9,2.6-5.9,5.9v75.9c-2.6,1.2-4.3,3.8-4.3,6.8v13
		c0,3,1.8,5.6,4.3,6.8v41.6c0,3.3,2.6,5.9,5.9,5.9c3.3,0,5.9-2.6,5.9-5.9v-41.6c2.6-1.2,4.3-3.8,4.3-6.8v-13
		C122.6,184.8,120.9,182.2,118.3,180.9z"/>
	<path class="st0" d="M77.2,191c-3.3,0-5.9,2.6-5.9,5.9v32c0,3.3,2.6,5.9,5.9,5.9c3.3,0,5.9-2.6,5.9-5.9v-32
		C83.1,193.6,80.5,191,77.2,191z"/>
	<path class="st0" d="M83.1,110.3v-44c0-3.3-2.6-5.9-5.9-5.9c-3.3,0-5.9,2.6-5.9,5.9v44c-2.6,1.2-4.3,3.8-4.3,6.8v13
		c0,3,1.8,5.6,4.3,6.8v36.6c0,3.3,2.6,5.9,5.9,5.9c3.3,0,5.9-2.6,5.9-5.9V137c2.6-1.2,4.3-3.8,4.3-6.8v-13
		C87.4,114.2,85.7,111.6,83.1,110.3z"/>
	<path class="st0" d="M42,144.7c3.3,0,5.9-2.6,5.9-5.9V86.6c0-3.3-2.6-5.9-5.9-5.9c-3.3,0-5.9,2.6-5.9,5.9v52.1
		C36.1,142,38.7,144.7,42,144.7z"/>
	<path class="st0" d="M47.9,171.9v-10c0-3.3-2.6-5.9-5.9-5.9c-3.3,0-5.9,2.6-5.9,5.9v10c-2.6,1.2-4.3,3.8-4.3,6.8v13
		c0,3,1.8,5.6,4.3,6.8v10c0,3.3,2.6,5.9,5.9,5.9c3.3,0,5.9-2.6,5.9-5.9v-10c2.6-1.2,4.3-3.8,4.3-6.8v-13
		C52.2,175.8,50.5,173.2,47.9,171.9z"/>
</g>
</svg>
